<svg xmlns="http://www.w3.org/2000/svg" width="1129.796" height="437.221" viewBox="0 0 1129.796 437.221">
  <g id="smarthome_header" transform="translate(-866 -40)">
    <g id="_68747470733a2f2f6d726a6f73682e69722f75706c6f6164732f6865616465722e737667" data-name="68747470733a2f2f6d726a6f73682e69722f75706c6f6164732f6865616465722e737667" transform="translate(920.208 40)">
      <rect id="Rectangle_1" data-name="Rectangle 1" width="1073.179" height="437.221" fill="none"/>
      <text id="SmartHome" transform="translate(289.588 319.633)" fill="rgba(0,0,0,0.8)" font-size="152" font-family="ChalkboardSE-Light, Chalkboard SE" font-weight="300"><tspan x="0" y="0">SmartHome</tspan></text>
    </g>
    <g id="smarthome-2" data-name="smarthome" transform="translate(338 -41.883)">
      <rect id="Rectangle_3" data-name="Rectangle 3" width="321.883" height="321.883" transform="translate(528 140)" fill="none"/>
      <g id="Group_8" data-name="Group 8" transform="translate(532.752 157.562)">
        <g id="Group_2" data-name="Group 2" transform="translate(0)">
          <path id="Path_1" data-name="Path 1" d="M104.777,16.373l38.287,53.978c9.367,0,32.115,32,32.115,40.451,0,0,6.46,2.868,16.875,10.094,3.594,2.493,5.02,5.129,9.025,10.144,1.2,1.5,9.027-4.632,9.027,0V262.311c0,8.454-7.6,15.306-16.965,15.306H16.965C7.6,277.617,0,270.765,0,262.311V136.656l7.658-5s14.492-23.409,14.492-24.95h0L40.372,92.2C40.372,83.745,95.408,16.373,104.777,16.373Z" transform="translate(50.982 -4.342)" fill="#035ece"/>
          <g id="Group_1" data-name="Group 1">
            <rect id="Rectangle_1-2" data-name="Rectangle 1" width="240.705" height="26.477" rx="13.239" transform="matrix(0.643, 0.766, -0.766, 0.643, 158.008, 0.121)" fill="#2488ff"/>
            <rect id="Rectangle_2" data-name="Rectangle 2" width="240.705" height="26.477" rx="13.239" transform="matrix(-0.643, 0.766, -0.766, -0.643, 175.005, 17.019)" fill="#2488ff"/>
          </g>
        </g>
        <g id="raspberrypi" transform="translate(96.78 107.651)">
          <g id="Group_3" data-name="Group 3" transform="translate(0)">
            <path id="Path_2" data-name="Path 2" d="M32.365,0a4.442,4.442,0,0,0-2.533,1.086c-2.292-.868-4.511-1.182-6.513.6-3.064-.386-4.077.41-4.824,1.375-.675-.024-5.042-.7-7.041,2.244-5.045-.579-6.636,2.919-4.828,6.2-1.037,1.568-2.1,3.112.314,6.1-.844,1.665-.314,3.473,1.689,5.669-.531,2.34.507,4,2.389,5.281C10.68,31.764,14.008,33.624,15,34.3c.386,1.858,1.182,3.619,4.994,4.608.629,2.774,2.919,3.257,5.138,3.859-7.335,4.2-13.607,9.729-13.559,23.259l-1.061,1.882c-8.395,5.042-15.945,21.2-4.149,34.351a65.894,65.894,0,0,0,3.206,10.349c1.714,13.171,12.98,19.347,15.947,20.071a53.455,53.455,0,0,0,15.246,8.515c5.91,6.006,12.3,8.3,18.743,8.274h.289c6.441,0,12.833-2.292,18.743-8.274a54.044,54.044,0,0,0,15.246-8.515c2.967-.724,14.208-6.9,15.945-20.071a63.037,63.037,0,0,0,3.206-10.349c11.819-13.147,4.27-29.31-4.149-34.351L107.7,66.025c.048-13.533-6.248-19.057-13.557-23.255,2.219-.579,4.511-1.061,5.138-3.859,3.812-.965,4.608-2.726,4.994-4.608.989-.675,4.318-2.533,3.98-5.741,1.858-1.279,2.892-2.943,2.389-5.281,2-2.2,2.533-4,1.689-5.669,2.412-2.991,1.351-4.535.314-6.1,1.809-3.28.217-6.778-4.824-6.2-2-2.943-6.369-2.268-7.041-2.268-.748-.943-1.76-1.76-4.824-1.375C93.976-.118,91.733.2,89.441,1.064c-2.726-2.123-4.535-.41-6.585.217-3.377-1.037-4.149.41-5.766,1.013-3.594-.748-4.7.893-6.417,2.605l-.121-.048a2.148,2.148,0,0,0-1.882.024h0C63.242,8.033,60.54,14.45,59.6,17.729c-.968-3.3-3.643-9.72-9.071-12.856l-.1-.048a2.148,2.148,0,0,0-1.882.072l-.024.024C46.79,3.206,45.7,1.568,42.11,2.316c-1.616-.6-2.364-2.051-5.67-.99-1.35-.41-2.146-1.35-3.617-1.3Z" transform="translate(-0.275)" fill="none"/>
          </g>
          <path id="Path_3" data-name="Path 3" d="M51.038,25.985c14.4,7.31,22.772,13.219,27.356,18.261-2.34,9.264-14.595,9.7-19.082,9.43a3.292,3.292,0,0,0,1.954-1.689c-1.132-.8-5.114-.072-7.888-1.616a2.664,2.664,0,0,0,2.075-1.206c-2.629-.817-5.452-1.544-7.116-2.892a4.2,4.2,0,0,0,2.919-.6c-2.364-1.279-4.873-2.268-6.827-4.173,1.206-.024,2.533,0,2.919-.458a26.728,26.728,0,0,1-5.476-4.366c1.713.193,2.412.024,2.847-.265-1.64-1.64-3.691-3.04-4.68-5.066,1.257.434,2.412.6,3.257-.048-.555-1.23-2.919-1.954-4.294-4.824,1.327.121,2.75.289,3.018,0a14.31,14.31,0,0,0-2.726-5.331c2.847-.048,7.167,0,6.971-.217L44.5,19.135c2.774-.748,5.62.121,7.7.748.917-.724-.024-1.64-1.158-2.557a27.976,27.976,0,0,1,6.438,1.592c1.037-.917-.675-1.833-1.5-2.75a16.466,16.466,0,0,1,6.755,2.605c1.11-1.061.072-1.954-.7-2.871A16.4,16.4,0,0,1,67.706,19.5c.507-.675,1.279-1.158.338-2.8a14.165,14.165,0,0,1,4.511,3.884c1.206-.748.724-1.809.724-2.75a43.349,43.349,0,0,1,4.9,5.066,4.208,4.208,0,0,0,.844-2.219c4.849,4.631,11.7,16.307,1.76,20.939C72.362,34.717,62.255,29.724,51.038,25.985Z" transform="translate(-29.659 -12.066)" fill="#031f41"/>
          <path id="Path_4" data-name="Path 4" d="M295.538,26.059c-14.4,7.31-22.773,13.22-27.354,18.262,2.34,9.263,14.595,9.7,19.082,9.43a3.292,3.292,0,0,1-1.954-1.689c1.132-.8,5.114-.072,7.888-1.616a2.664,2.664,0,0,1-2.075-1.206c2.629-.817,5.452-1.544,7.116-2.892a4.2,4.2,0,0,1-2.919-.6c2.364-1.257,4.873-2.244,6.827-4.149-1.206-.024-2.533,0-2.919-.458a26.729,26.729,0,0,0,5.476-4.366c-1.712.193-2.412.024-2.847-.265,1.64-1.64,3.691-3.04,4.68-5.066-1.257.434-2.412.6-3.257-.048.555-1.23,2.919-1.954,4.294-4.824-1.327.121-2.75.289-3.018,0a14.31,14.31,0,0,1,2.726-5.331c-2.847-.048-7.167,0-6.971-.217l1.76-1.785c-2.774-.748-5.645.121-7.7.748-.917-.724.024-1.64,1.158-2.557a27.977,27.977,0,0,0-6.439,1.592c-1.037-.917.675-1.833,1.5-2.75a16.466,16.466,0,0,0-6.755,2.6c-1.11-1.061-.072-1.954.7-2.871a16.4,16.4,0,0,0-5.669,3.594c-.507-.675-1.279-1.158-.338-2.8a14.166,14.166,0,0,0-4.511,3.884c-1.206-.748-.724-1.809-.724-2.75A43.349,43.349,0,0,0,268.4,23a4.208,4.208,0,0,1-.844-2.219c-4.849,4.631-11.7,16.307-1.76,20.939,8.443-6.924,18.55-11.917,29.744-15.654Z" transform="translate(-197.881 -12.141)" fill="#031f41"/>
          <g id="Group_7" data-name="Group 7" transform="translate(5.527 42.018)">
            <path id="Path_5" data-name="Path 5" d="M210.7,399.552c.048,8.66-7.623,15.7-17.152,15.752s-17.3-6.923-17.344-15.584v-.169c-.048-8.66,7.623-15.7,17.152-15.752s17.3,6.924,17.345,15.584Z" transform="translate(-139.287 -333.232)" fill="#031f41"/>
            <g id="Group_4" data-name="Group 4" transform="translate(18.038 18.557)">
              <path id="Path_6" data-name="Path 6" d="M124.431,256.69c7.141,4.608,8.443,15.077,2.871,23.351-5.548,8.274-15.849,11.265-23.013,6.658h0c-7.141-4.608-8.443-15.077-2.871-23.351s15.873-11.265,23.013-6.658Z" transform="translate(-97.957 -253.701)" fill="#031f41"/>
              <path id="Path_7" data-name="Path 7" d="M267.788,253.275c-7.141,4.608-8.443,15.077-2.871,23.351,5.548,8.274,15.849,11.265,23.013,6.658h0c7.141-4.608,8.443-15.077,2.871-23.351C285.229,251.634,274.928,248.668,267.788,253.275Z" transform="translate(-222.017 -251.105)" fill="#031f41"/>
            </g>
            <g id="Group_5" data-name="Group 5" transform="translate(0 28.647)">
              <path id="Path_8" data-name="Path 8" d="M32.427,294.722c7.72-2.026,2.605,31.434-3.666,28.707C21.837,317.952,19.617,301.91,32.427,294.722Z" transform="translate(-23.184 -294.223)" fill="#031f41"/>
              <path id="Path_9" data-name="Path 9" d="M418.858,293.022c-7.72-2.026-2.605,31.434,3.666,28.707C429.448,316.228,431.668,300.211,418.858,293.022Z" transform="translate(-320.457 -292.933)" fill="#031f41"/>
            </g>
            <path id="Path_10" data-name="Path 10" d="M322.016,188.523c13.316-2.219,24.388,5.573,23.953,19.8C345.536,213.78,317.119,189.344,322.016,188.523Z" transform="translate(-249.498 -184.78)" fill="#031f41"/>
            <path id="Path_11" data-name="Path 11" d="M95.916,186.824C82.6,184.6,71.528,192.4,71.964,206.627,72.422,212.081,100.838,187.62,95.916,186.824Z" transform="translate(-60.186 -183.49)" fill="#031f41"/>
            <path id="Path_12" data-name="Path 12" d="M198.384,174.185c-7.936-.193-15.584,5.813-15.584,9.287-.024,4.245,6.272,8.588,15.654,8.685,9.553.072,15.654-3.473,15.7-7.84,0-4.945-8.732-10.2-15.777-10.132Z" transform="translate(-144.296 -174.181)" fill="#031f41"/>
            <path id="Path_13" data-name="Path 13" d="M195.417,534.427c6.924-.29,16.235,2.2,16.235,5.5.121,3.206-8.443,10.469-16.693,10.349-8.564.362-16.959-6.923-16.862-9.43-.121-3.691,10.445-6.585,17.32-6.417Z" transform="translate(-140.727 -447.507)" fill="#031f41"/>
            <g id="Group_6" data-name="Group 6" transform="translate(8.759 56.473)">
              <path id="Path_14" data-name="Path 14" d="M79.786,426.651c4.921,5.862,7.189,16.138,3.064,19.178-3.884,2.316-13.364,1.351-20.071-8.153-4.535-7.984-3.956-16.114-.772-18.5,4.778-2.871,12.11.989,17.778,7.478Z" transform="translate(-59.498 -415.816)" fill="#031f41"/>
              <path id="Path_15" data-name="Path 15" d="M330.046,417.261c-5.331,6.152-8.3,17.393-4.415,21.011,3.715,2.8,13.726,2.412,21.108-7.67,5.355-6.778,3.57-18.092.507-21.108-4.559-3.473-11.1.965-17.2,7.767Z" transform="translate(-260.087 -408.284)" fill="#031f41"/>
            </g>
          </g>
        </g>
      </g>
    </g>
  </g>
</svg>
